<?xml version="1.0" standalone="no"?>
<!DOCTYPE svg PUBLIC "-//W3C//DTD SVG 20010904//EN"
 "http://www.w3.org/TR/2001/REC-SVG-20010904/DTD/svg10.dtd">
<svg version="1.0" xmlns="http://www.w3.org/2000/svg"
 width="512.000000pt" height="512.000000pt" viewBox="0 0 512.000000 512.000000"
 preserveAspectRatio="xMidYMid meet">

<g transform="translate(0.000000,512.000000) scale(0.100000,-0.100000)"
fill="#000000" stroke="none">
<path d="M2465 5008 c-80 -15 -171 -64 -236 -128 -57 -56 -69 -78 -324 -595
-146 -296 -274 -550 -285 -565 -11 -15 -35 -35 -54 -44 -20 -9 -244 -46 -552
-91 -286 -41 -557 -81 -602 -89 -115 -20 -200 -62 -271 -133 -160 -161 -185
-408 -60 -596 16 -25 220 -231 452 -457 232 -225 429 -420 436 -433 34 -54 32
-74 -70 -671 -86 -496 -100 -593 -96 -661 10 -191 134 -354 317 -417 89 -31
221 -30 303 1 31 12 283 141 560 287 276 145 519 270 540 276 27 8 47 8 75 0
20 -6 264 -131 542 -277 278 -146 530 -275 560 -287 79 -30 212 -31 300 0 130
45 242 152 290 279 45 117 42 157 -69 799 -102 597 -104 617 -70 671 7 13 203
207 436 433 232 226 435 431 452 457 168 253 58 597 -226 703 -35 13 -260 50
-640 105 -350 51 -599 92 -620 101 -18 9 -42 29 -53 44 -11 15 -139 269 -285
564 -250 507 -268 541 -322 595 -112 112 -269 159 -428 129z m144 -298 c19 -5
48 -22 64 -37 19 -19 121 -212 297 -569 288 -584 298 -601 412 -674 31 -20 83
-44 115 -53 32 -9 312 -52 623 -97 400 -58 577 -87 605 -101 84 -40 118 -146
73 -226 -13 -24 -203 -217 -456 -463 -408 -398 -434 -426 -467 -493 -43 -91
-58 -182 -45 -274 5 -37 50 -304 100 -593 49 -289 90 -542 90 -563 0 -101
-113 -187 -208 -159 -20 7 -267 133 -548 280 -280 148 -535 277 -565 287 -71
25 -205 25 -276 1 -28 -9 -282 -138 -565 -287 -282 -148 -530 -274 -550 -281
-95 -28 -208 58 -208 159 0 21 41 274 90 563 50 289 95 554 100 590 17 118
-17 255 -86 346 -16 20 -215 218 -443 441 -242 235 -425 422 -438 445 -13 23
-23 56 -23 75 0 70 51 142 115 163 16 5 282 46 590 90 308 45 586 88 618 97
32 9 84 33 115 53 114 73 124 90 412 674 178 360 277 550 297 569 46 43 100
55 162 37z"/>
</g>
</svg>
